<?xml version="1.0" encoding="utf-8"?>
<!-- Generator: Adobe Illustrator 19.2.1, SVG Export Plug-In . SVG Version: 6.00 Build 0)  -->
<svg version="1.1" id="Filled_Icons" xmlns="http://www.w3.org/2000/svg" xmlns:xlink="http://www.w3.org/1999/xlink" x="0px"
	 y="0px" viewBox="0 0 24 24" style="enable-background:new 0 0 24 24;" xml:space="preserve">
<style type="text/css">
	.st0{fill:#993629;}
</style>
<g>
	<path class="st0" d="M20.6,10.3c-0.2,0-0.5,0-0.7,0.1C19.5,7.9,17.2,6,14.6,6c-0.7,0-1.4,0.1-2,0.4C12.4,6.4,12,6.6,12,7.2v9
		c0,0.4,0.4,0.8,0.8,0.8c0.2,0,7.1,0,7.9,0c1.8,0,3.3-1.5,3.3-3.3C24,11.8,22.5,10.3,20.6,10.3z"/>
	<path class="st0" d="M10.5,7C10.2,7,10,7.2,10,7.5v9c0,0.3,0.2,0.5,0.5,0.5s0.5-0.2,0.5-0.5v-9C11,7.2,10.8,7,10.5,7z"/>
	<path class="st0" d="M8.5,8C8.2,8,8,8.2,8,8.5v8C8,16.8,8.2,17,8.5,17S9,16.8,9,16.5v-8C9,8.2,8.8,8,8.5,8z"/>
	<path class="st0" d="M6.5,8.5C6.2,8.5,6,8.7,6,9v7.5C6,16.8,6.2,17,6.5,17S7,16.8,7,16.5V9C7,8.7,6.8,8.5,6.5,8.5z"/>
	<path class="st0" d="M4.5,10.5C4.2,10.5,4,10.7,4,11v5.5C4,16.8,4.2,17,4.5,17S5,16.8,5,16.5V11C5,10.7,4.8,10.5,4.5,10.5z"/>
	<path class="st0" d="M2.5,10.5C2.2,10.5,2,10.7,2,11v5.5C2,16.8,2.2,17,2.5,17S3,16.8,3,16.5V11C3,10.7,2.8,10.5,2.5,10.5z"/>
	<path class="st0" d="M0.5,11.5C0.2,11.5,0,11.7,0,12v4c0,0.3,0.2,0.5,0.5,0.5S1,16.3,1,16v-4C1,11.7,0.8,11.5,0.5,11.5z"/>
</g>
</svg>
